<svg width="37" height="37" viewBox="0 0 37 37" fill="none" xmlns="http://www.w3.org/2000/svg">
<path d="M29.9461 7.06324C28.4457 5.54795 26.6606 4.34405 24.6935 3.52072C22.7263 2.69739 20.6159 2.27085 18.4834 2.2656C16.351 2.26035 14.2385 2.6765 12.2673 3.49014C10.2962 4.30378 8.5052 5.49887 6.99731 7.00676C5.48942 8.51465 4.29433 10.3056 3.48069 12.2768C2.66705 14.2479 2.2509 16.3604 2.25615 18.4929C2.2614 20.6254 2.68794 22.7358 3.51128 24.7029C4.33461 26.67 5.5385 28.4551 7.05379 29.9555C8.55424 31.4708 10.3393 32.6747 12.3064 33.4981C14.2736 34.3214 16.384 34.7479 18.5164 34.7532C20.6489 34.7584 22.7614 34.3423 24.7326 33.5286C26.7037 32.715 28.4947 31.5199 30.0026 30.012C31.5105 28.5041 32.7056 26.7132 33.5192 24.742C34.3328 22.7709 34.749 20.6584 34.7437 18.5259C34.7385 16.3934 34.312 14.283 33.4886 12.3159C32.6653 10.3488 31.4614 8.56369 29.9461 7.06324ZM4.62495 18.5094C4.62443 17.2814 4.78725 16.0588 5.10913 14.8737C5.63956 16.0155 6.40991 17.0019 6.93383 18.1734C7.61096 19.6794 9.42917 19.2617 10.232 20.5812C10.9446 21.7527 10.1836 23.2341 10.7169 24.4597C11.1043 25.3493 12.0177 25.5437 12.6479 26.1941C13.2918 26.8503 13.278 27.7493 13.3763 28.6049C13.4872 29.6102 13.6671 30.6067 13.9147 31.5873C13.9147 31.5945 13.9147 31.6025 13.9205 31.6097C8.51284 29.7106 4.62495 24.5559 4.62495 18.5094ZM18.4999 32.3844C17.7251 32.3841 16.9516 32.3194 16.1874 32.1907C16.1954 31.9949 16.199 31.812 16.2185 31.6849C16.3941 30.5358 16.9694 29.4121 17.7455 28.5521C18.5122 27.7037 19.563 27.13 20.2105 26.1674C20.845 25.2279 21.035 23.9633 20.7734 22.8656C20.3882 21.2439 18.1849 20.7027 16.9968 19.8232C16.3139 19.3173 15.7062 18.5354 14.8093 18.4718C14.396 18.4429 14.0498 18.5318 13.6401 18.4263C13.2643 18.3287 12.9695 18.1264 12.5691 18.1791C11.8212 18.2774 11.3493 19.0767 10.5457 18.9683C9.78327 18.8664 8.99774 17.9739 8.8243 17.2476C8.60172 16.314 9.34028 16.0112 10.1316 15.9281C10.4618 15.8934 10.8326 15.8558 11.1498 15.9772C11.5675 16.1319 11.7648 16.5409 12.1398 16.7476C12.843 17.1335 12.9854 16.517 12.8777 15.8927C12.7165 14.9575 12.5286 14.5767 13.3626 13.9328C13.9407 13.4891 14.435 13.1682 14.3425 12.3712C14.2876 11.9029 14.031 11.6911 14.2702 11.225C14.4516 10.8702 14.9495 10.5501 15.274 10.3383C16.1116 9.79199 18.862 9.83246 17.7383 8.30332C17.408 7.85455 16.7988 7.0524 16.2207 6.94256C15.498 6.80598 15.1772 7.61246 14.6735 7.96801C14.1532 8.33584 13.14 8.75353 12.619 8.1848C11.918 7.41951 13.0836 7.16875 13.3416 6.63398C13.4609 6.38467 13.3416 6.03852 13.1407 5.7126C13.4014 5.60275 13.6663 5.50086 13.9356 5.40691C14.1044 5.53157 14.3046 5.60665 14.5138 5.62371C14.9972 5.65551 15.4532 5.39391 15.8753 5.72344C16.3435 6.08476 16.681 6.54148 17.3025 6.65422C17.9038 6.76334 18.5404 6.41285 18.6893 5.79715C18.7796 5.42281 18.6893 5.02752 18.6026 4.6409C21.3053 4.65645 23.9439 5.46587 26.1905 6.96857C26.0459 6.91365 25.8732 6.92016 25.66 7.01916C25.2214 7.22295 24.5999 7.74182 24.5486 8.25635C24.49 8.84025 25.3515 8.92264 25.7605 8.92264C26.3747 8.92264 26.9969 8.64803 26.7989 7.93838C26.7129 7.63053 26.5959 7.31039 26.4073 7.11672C26.8607 7.43133 27.295 7.77254 27.708 8.13855C27.7015 8.14506 27.695 8.15084 27.6885 8.15807C27.2723 8.59166 26.7888 8.93492 26.5041 9.46246C26.3032 9.83391 26.077 10.0102 25.6701 10.1063C25.4461 10.1591 25.1903 10.1786 25.0024 10.3289C24.4792 10.7408 24.7769 11.7309 25.2727 12.0279C25.8992 12.4029 26.8286 12.2266 27.3012 11.6911C27.6705 11.272 27.888 10.5443 28.5521 10.545C28.8445 10.5444 29.1254 10.6589 29.334 10.8637C29.6086 11.1484 29.5544 11.4144 29.613 11.7699C29.7163 12.4015 30.2735 12.059 30.6124 11.7403C30.8594 12.18 31.0823 12.6328 31.2801 13.0967C30.9072 13.6336 30.6109 14.219 29.7141 13.5932C29.1772 13.2181 28.8469 12.6739 28.1727 12.5048C27.5837 12.3603 26.9803 12.5106 26.3986 12.6111C25.7373 12.726 24.9533 12.7766 24.4517 13.2774C23.9668 13.7601 23.7103 14.4062 23.1943 14.8911C22.1963 15.8305 21.775 16.856 22.4211 18.1842C23.0426 19.4611 24.3426 20.1542 25.7453 20.0631C27.1234 19.9713 28.555 19.1721 28.5152 21.1746C28.5008 21.8835 28.6489 22.3742 28.8665 23.0325C29.0681 23.6395 29.0543 24.2278 29.1006 24.8543C29.1446 25.588 29.2593 26.3157 29.4431 27.0273C28.1478 28.6951 26.4885 30.0447 24.5919 30.9731C22.6953 31.9016 20.6116 32.3843 18.4999 32.3844Z" fill="#0FA958"/>
</svg>
