<svg
  width="21"
  height="21"
  viewBox="0 0 21 21"
  fill="none"
  xmlns="http://www.w3.org/2000/svg"
>
  <path
    d="M10.5 10.0625C9.91984 10.0625 9.36344 9.83203 8.9532 9.42179C8.54297 9.01156 8.3125 8.45516 8.3125 7.875C8.3125 7.29484 8.54297 6.73844 8.9532 6.3282C9.36344 5.91797 9.91984 5.6875 10.5 5.6875C11.0802 5.6875 11.6366 5.91797 12.0468 6.3282C12.457 6.73844 12.6875 7.29484 12.6875 7.875C12.6875 8.16227 12.6309 8.44672 12.521 8.71212C12.4111 8.97752 12.2499 9.21867 12.0468 9.42179C11.8437 9.62492 11.6025 9.78605 11.3371 9.89599C11.0717 10.0059 10.7873 10.0625 10.5 10.0625ZM10.5 1.75C8.87555 1.75 7.31763 2.39531 6.16897 3.54397C5.02031 4.69263 4.375 6.25055 4.375 7.875C4.375 12.4687 10.5 19.25 10.5 19.25C10.5 19.25 16.625 12.4687 16.625 7.875C16.625 6.25055 15.9797 4.69263 14.831 3.54397C13.6824 2.39531 12.1245 1.75 10.5 1.75Z"
    fill="#DB3B31"
  />
</svg>