<svg
    className="burger-menu"
    width="37"
    height="37"
    viewBox="0 0 37 37"
    fill="none"
    xmlns="http://www.w3.org/2000/svg"
  >
    <path
      d="M6.16669 9.24999C6.16669 8.84112 6.32911 8.44899 6.61823 8.15987C6.90735 7.87075 7.29948 7.70833 7.70835 7.70833H29.2917C29.7006 7.70833 30.0927 7.87075 30.3818 8.15987C30.6709 8.44899 30.8334 8.84112 30.8334 9.24999C30.8334 9.65887 30.6709 10.051 30.3818 10.3401C30.0927 10.6292 29.7006 10.7917 29.2917 10.7917H7.70835C7.29948 10.7917 6.90735 10.6292 6.61823 10.3401C6.32911 10.051 6.16669 9.65887 6.16669 9.24999ZM6.16669 27.75C6.16669 27.3411 6.32911 26.949 6.61823 26.6599C6.90735 26.3708 7.29948 26.2083 7.70835 26.2083H29.2917C29.7006 26.2083 30.0927 26.3708 30.3818 26.6599C30.6709 26.949 30.8334 27.3411 30.8334 27.75C30.8334 28.1589 30.6709 28.551 30.3818 28.8401C30.0927 29.1292 29.7006 29.2917 29.2917 29.2917H7.70835C7.29948 29.2917 6.90735 29.1292 6.61823 28.8401C6.32911 28.551 6.16669 28.1589 6.16669 27.75ZM16.9584 16.9583C16.5495 16.9583 16.1573 17.1208 15.8682 17.4099C15.5791 17.699 15.4167 18.0911 15.4167 18.5C15.4167 18.9089 15.5791 19.301 15.8682 19.5901C16.1573 19.8792 16.5495 20.0417 16.9584 20.0417H29.2917C29.7006 20.0417 30.0927 19.8792 30.3818 19.5901C30.6709 19.301 30.8334 18.9089 30.8334 18.5C30.8334 18.0911 30.6709 17.699 30.3818 17.4099C30.0927 17.1208 29.7006 16.9583 29.2917 16.9583H16.9584Z"
      fill="#555555"
    />
  </svg>