<svg
  width="28"
  height="28"
  viewBox="0 0 28 28"
  fill="none"
  xmlns="http://www.w3.org/2000/svg"
>
  <path
    d="M21.0361 19.3865L26.033 24.3822L24.3821 26.033L19.3865 21.0362C17.5277 22.5263 15.2156 23.3367 12.8333 23.3333C7.03731 23.3333 2.33331 18.6293 2.33331 12.8333C2.33331 7.03734 7.03731 2.33334 12.8333 2.33334C18.6293 2.33334 23.3333 7.03734 23.3333 12.8333C23.3367 15.2157 22.5262 17.5277 21.0361 19.3865ZM18.6958 18.5208C20.1764 16.9982 21.0033 14.9572 21 12.8333C21 8.32068 17.3448 4.66668 12.8333 4.66668C8.32065 4.66668 4.66665 8.32068 4.66665 12.8333C4.66665 17.3448 8.32065 21 12.8333 21C14.9571 21.0034 16.9982 20.1765 18.5208 18.6958L18.6958 18.5208Z"
    fill="#606060"
  />
</svg>